HIERARCHY
ROOT hip
{
  OFFSET 0.0 0.0 0.0
  CHANNELS 6 Xposition Yposition Zposition Zrotation Yrotation Xrotation
  JOINT abdomen
  {
    OFFSET 0.0 20.6881 -0.73152
    CHANNELS 3 Zrotation Xrotation Yrotation
    JOINT chest
    {
      OFFSET 0.0 11.7043 -0.48768
      CHANNELS 3 Zrotation Xrotation Yrotation
      JOINT neck
      {
        OFFSET 0.0 22.1894 -2.19456
        CHANNELS 3 Zrotation Xrotation Yrotation
        JOINT head
        {
          OFFSET -0.24384 7.07133 1.2192
          CHANNELS 3 Zrotation Xrotation Yrotation
          JOINT leftEye
          {
            OFFSET 4.14528 8.04674 8.04672
            CHANNELS 3 Zrotation Xrotation Yrotation
            End Site
            {
              OFFSET 1.0 0.0 0.0
            }
          }
          JOINT rightEye
          {
            OFFSET -3.6576 8.04674 8.04672
            CHANNELS 3 Zrotation Xrotation Yrotation
            End Site
            {
              OFFSET 1.0 0.0 0.0
            }
          }
        }
      }
      JOINT rCollar
      {
        OFFSET -2.68224 19.2634 -4.8768
        CHANNELS 3 Zrotation Xrotation Yrotation
        JOINT rShldr
        {
          OFFSET -8.77824 -1.95073 1.46304
          CHANNELS 3 Zrotation Xrotation Yrotation
          JOINT rForeArm
          {
            OFFSET -28.1742 -1.7115 0.48768
            CHANNELS 3 Zrotation Xrotation Yrotation
            JOINT rHand
            {
              OFFSET -22.5879 0.773209 7.07136
              CHANNELS 3 Zrotation Xrotation Yrotation
              JOINT rThumb1
              {
                OFFSET -1.2192 -0.487915 3.41376
                CHANNELS 3 Zrotation Xrotation Yrotation
                JOINT rThumb2
                {
                  OFFSET -3.37035 -0.52449 3.41376
                  CHANNELS 3 Zrotation Xrotation Yrotation
                  End Site
                  {
                    OFFSET -1.78271 -1.18214 1.43049
                  }
                }
              }
              JOINT rIndex1
              {
                OFFSET -7.75947 0.938293 5.60832
                CHANNELS 3 Zrotation Xrotation Yrotation
                JOINT rIndex2
                {
                  OFFSET -2.54057 -0.884171 1.56538
                  CHANNELS 3 Zrotation Xrotation Yrotation
                  End Site
                  {
                    OFFSET -1.62519 -0.234802 1.16502
                  }
                }
              }
              JOINT rMid1
              {
                OFFSET -8.24714 1.18213 3.41376
                CHANNELS 3 Zrotation Xrotation Yrotation
                JOINT rMid2
                {
                  OFFSET -3.10165 -0.590103 1.0647
                  CHANNELS 3 Zrotation Xrotation Yrotation
                  End Site
                  {
                    OFFSET -2.48547 -0.328903 0.83742
                  }
                }
              }
              JOINT rRing1
              {
                OFFSET -8.82822 0.546677 1.51678
                CHANNELS 3 Zrotation Xrotation Yrotation
                JOINT rRing2
                {
                  OFFSET -2.60934 -0.819778 -0.0198488
                  CHANNELS 3 Zrotation Xrotation Yrotation
                  End Site
                  {
                    OFFSET -2.33842 -0.294052 0.168128
                  }
                }
              }
              JOINT rPinky1
              {
                OFFSET -8.27202 -0.0477905 -0.4584
                CHANNELS 3 Zrotation Xrotation Yrotation
                JOINT rPinky2
                {
                  OFFSET -1.82734 -0.647385 -0.700984
                  CHANNELS 3 Zrotation Xrotation Yrotation
                  End Site
                  {
                    OFFSET -1.69225 -0.51767 -0.607171
                  }
                }
              }
            }
          }
        }
      }
      JOINT lCollar
      {
        OFFSET 2.68224 19.2634 -4.8768
        CHANNELS 3 Zrotation Xrotation Yrotation
        JOINT lShldr
        {
          OFFSET 8.77824 -1.95073 1.46304
          CHANNELS 3 Zrotation Xrotation Yrotation
          JOINT lForeArm
          {
            OFFSET 28.1742 -1.7115 0.48768
            CHANNELS 3 Zrotation Xrotation Yrotation
            JOINT lHand
            {
              OFFSET 22.5879 0.773209 7.07136
              CHANNELS 3 Zrotation Xrotation Yrotation
              JOINT lThumb1
              {
                OFFSET 1.2192 -0.487915 3.41376
                CHANNELS 3 Zrotation Xrotation Yrotation
                JOINT lThumb2
                {
                  OFFSET 3.37035 -0.52449 3.41376
                  CHANNELS 3 Zrotation Xrotation Yrotation
                  End Site
                  {
                    OFFSET 1.78271 -1.18214 1.43049
                  }
                }
              }
              JOINT lIndex1
              {
                OFFSET 7.75947 0.938293 5.60832
                CHANNELS 3 Zrotation Xrotation Yrotation
                JOINT lIndex2
                {
                  OFFSET 2.54057 -0.884171 1.56538
                  CHANNELS 3 Zrotation Xrotation Yrotation
                  End Site
                  {
                    OFFSET 1.62519 -0.234802 1.16502
                  }
                }
              }
              JOINT lMid1
              {
                OFFSET 8.24714 1.18213 3.41376
                CHANNELS 3 Zrotation Xrotation Yrotation
                JOINT lMid2
                {
                  OFFSET 3.10165 -0.590103 1.0647
                  CHANNELS 3 Zrotation Xrotation Yrotation
                  End Site
                  {
                    OFFSET 2.48547 -0.328903 0.83742
                  }
                }
              }
              JOINT lRing1
              {
                OFFSET 8.82822 0.546677 1.51678
                CHANNELS 3 Zrotation Xrotation Yrotation
                JOINT lRing2
                {
                  OFFSET 2.60934 -0.819778 -0.0198488
                  CHANNELS 3 Zrotation Xrotation Yrotation
                  End Site
                  {
                    OFFSET 2.33842 -0.294052 0.168128
                  }
                }
              }
              JOINT lPinky1
              {
                OFFSET 8.27202 -0.0477905 -0.4584
                CHANNELS 3 Zrotation Xrotation Yrotation
                JOINT lPinky2
                {
                  OFFSET 1.82734 -0.647385 -0.700984
                  CHANNELS 3 Zrotation Xrotation Yrotation
                  End Site
                  {
                    OFFSET 1.69225 -0.51767 -0.607171
                  }
                }
              }
            }
          }
        }
      }
    }
  }
  JOINT rButtock
  {
    OFFSET -8.77824 4.35084 1.2192
    CHANNELS 3 Zrotation Xrotation Yrotation
    JOINT rThigh
    {
      OFFSET 0.0 -1.70687 -2.19456
      CHANNELS 3 Zrotation Xrotation Yrotation
      JOINT rShin
      {
        OFFSET 0.0 -36.8199 0.73152
        CHANNELS 3 Zrotation Xrotation Yrotation
        JOINT rFoot
        {
          OFFSET 0.73152 -45.1104 -5.12064
          CHANNELS 3 Zrotation Xrotation Yrotation
          End Site
          {
            OFFSET -1.1221 -3.69964 12.103
          }
        }
      }
    }
  }
  JOINT lButtock
  {
    OFFSET 8.77824 4.35084 1.2192
    CHANNELS 3 Zrotation Xrotation Yrotation
    JOINT lThigh
    {
      OFFSET 0.0 -1.70687 -2.19456
      CHANNELS 3 Zrotation Xrotation Yrotation
      JOINT lShin
      {
        OFFSET 0.0 -36.8199 0.73152
        CHANNELS 3 Zrotation Xrotation Yrotation
        JOINT lFoot
        {
          OFFSET -0.73152 -45.1104 -5.12064
          CHANNELS 3 Zrotation Xrotation Yrotation
          End Site
          {
            OFFSET 1.1221 -3.69964 12.103
          }
        }
      }
    }
  }
}
MOTION
Frames: 4
Frame Time: 0.00833333
0.0 68.0469 0.0 98.483 -89.4395 -80.1422 -4.60241 48.8311 0.968272 -2.49159 -9.46429 -1.08476 1.08291 19.7522 0.363034 9.16808 -71.4041 5.1714 -0.0 0.0 0.0 -0.0 0.0 0.0 3.98992e-15 -5.43229e-13 -1.83379e-14 78.7628 29.7183 5.23775 -18.8142 -11.5897 35.8734 -0.0138224 -3.35469 -0.472016 -4.27826e-10 -1.34054e-09 -4.0623e-10 -7.47132e-10 -2.31612e-09 -7.07737e-10 -4.27822e-10 -1.34054e-09 -4.06233e-10 7.73091 5.47488 0.417314 -4.27824e-10 -1.34054e-09 -4.06233e-10 2.90554 0.965183 0.102902 -4.27819e-10 -1.34054e-09 -4.06231e-10 10.2786 0.731801 0.0259123 -4.27832e-10 -1.34053e-09 -4.0623e-10 2.22167 -0.733487 -0.20892 3.96173e-15 -5.43229e-13 -1.86361e-14 -72.0296 26.2481 -7.47874 18.1393 -10.8372 -34.3333 0.881256 -25.65 3.86965 1.11239e-09 -1.15597e-09 3.28736e-10 1.92877e-09 -1.98423e-09 5.89483e-10 1.11238e-09 -1.15599e-09 3.28739e-10 -7.73091 5.47488 -0.417314 1.11239e-09 -1.15597e-09 3.28733e-10 -2.90554 0.965183 -0.102902 1.11238e-09 -1.156e-09 3.28729e-10 -10.2786 0.731801 -0.0259123 1.11239e-09 -1.15597e-09 3.28723e-10 -2.22167 -0.733487 0.20892 -2.03217e-16 0.0 -3.88251e-19 -7.96526 -52.6437 -4.73561 -8.00757 82.8924 7.98326 3.87971 23.6816 -11.6823 2.03217e-16 0.0 3.88251e-19 28.0096 -72.9739 40.2541 1.67578 65.7696 -1.54035 1.96519 16.829 -6.93484
-0.6260000000000048 68.0766 0.1676000000000002 104.425 -89.3778 -86.1387 -4.66804 48.8725 1.07526 -2.47962 -9.49491 -1.07378 1.08279 19.7104 0.3654 9.00309 -71.3427 5.05465 -0.0 0.0 0.0 -0.0 0.0 0.0 2.30218e-15 -6.32584e-13 -2.14416e-14 78.8106 29.668 5.13988 -18.8287 -11.6063 35.9068 -0.0138703 -3.36052 -0.472838 -4.47249e-10 -1.39158e-09 -3.58746e-10 -7.80738e-10 -2.40475e-09 -6.25262e-10 -4.47246e-10 -1.39158e-09 -3.5875e-10 7.73091 5.47488 0.417314 -4.47247e-10 -1.39158e-09 -3.58749e-10 2.90554 0.965183 0.102902 -4.47243e-10 -1.39158e-09 -3.58747e-10 10.2786 0.731801 0.0259123 -4.47255e-10 -1.39157e-09 -3.58746e-10 2.22167 -0.733487 -0.20892 2.24516e-15 -6.32581e-13 -2.17184e-14 -71.9446 26.2797 -7.57807 18.1672 -10.8675 -34.3964 0.883075 -25.6743 3.87385 1.06981e-09 -1.23168e-09 2.42872e-10 1.85711e-09 -2.11639e-09 4.39741e-10 1.06981e-09 -1.2317e-09 2.42875e-10 -7.73091 5.47488 -0.417314 1.06981e-09 -1.23168e-09 2.42871e-10 -2.90554 0.965183 -0.102902 1.0698e-09 -1.2317e-09 2.42867e-10 -10.2786 0.731801 -0.0259123 1.06981e-09 -1.23168e-09 2.42863e-10 -2.22167 -0.733487 0.20892 -2.03217e-16 0.0 -3.88251e-19 -8.2249 -52.9842 -4.6896 -8.93962 83.5438 8.90567 4.32861 25.3537 -12.0064 2.03217e-16 0.0 3.88251e-19 27.5148 -72.7528 39.6499 1.71006 66.1826 -1.61548 1.98564 16.5138 -7.22158
-1.252999999999986 68.1115 0.33360000000000056 109.349 -89.2968 -91.133 -4.72643 48.9441 1.19078 -2.47393 -9.5342 -1.06132 1.07653 19.674 0.370177 8.81978 -71.3092 4.93182 -0.0 0.0 0.0 -0.0 0.0 0.0 -4.49379e-16 -7.84892e-13 -2.71465e-14 78.8583 29.63 5.03893 -18.8535 -11.6348 35.9641 -0.0140047 -3.37679 -0.475133 -3.90347e-10 -1.31842e-09 -2.10806e-10 -6.81477e-10 -2.27927e-09 -3.68042e-10 -3.90343e-10 -1.31842e-09 -2.10814e-10 7.73091 5.47488 0.417314 -3.90345e-10 -1.31842e-09 -2.1081e-10 2.90554 0.965183 0.102902 -3.90341e-10 -1.31842e-09 -2.10809e-10 10.2786 0.731801 0.0259123 -3.9035e-10 -1.31842e-09 -2.10806e-10 2.22167 -0.733487 -0.20892 -5.44609e-16 -7.84886e-13 -2.73919e-14 -71.8523 26.3105 -7.69112 18.1925 -10.8952 -34.4537 0.886162 -25.7154 3.88098 8.70024e-10 -1.22846e-09 4.02412e-11 1.5145e-09 -2.11487e-09 8.48175e-11 8.7002e-10 -1.22847e-09 4.02439e-11 -7.73091 5.47488 -0.417314 8.70024e-10 -1.22846e-09 4.0242e-11 -2.90554 0.965183 -0.102902 8.70015e-10 -1.22847e-09 4.02398e-11 -10.2786 0.731801 -0.0259123 8.70025e-10 -1.22846e-09 4.02394e-11 -2.22167 -0.733487 0.20892 -2.03217e-16 0.0 -3.88251e-19 -8.49134 -53.4241 -4.66434 -10.2503 84.2775 10.2026 4.86478 27.2083 -12.4178 2.03217e-16 0.0 3.88251e-19 26.9939 -72.4987 39.0202 1.74215 66.5705 -1.68999 2.00693 16.2236 -7.50402
-1.8769999999999811 68.1517 0.4981000000000009 112.673 -89.1933 -94.5401 -4.78459 49.0295 1.29966 -2.46626 -9.57264 -1.05049 1.06816 19.6467 0.376655 8.6325 -71.2894 4.81169 -0.0 0.0 0.0 -0.0 0.0 0.0 -7.6597e-16 -8.76311e-13 -3.06214e-14 78.894 29.6132 4.95473 -18.8809 -11.6662 36.0276 -0.0141603 -3.39546 -0.477766 -3.01496e-10 -1.10909e-09 -4.52933e-11 -5.26283e-10 -1.91839e-09 -8.00673e-11 -3.01491e-10 -1.10909e-09 -4.53046e-11 7.73091 5.47488 0.417314 -3.01495e-10 -1.10909e-09 -4.52968e-11 2.90554 0.965183 0.102902 -3.0149e-10 -1.10909e-09 -4.52964e-11 10.2786 0.731801 0.0259123 -3.01498e-10 -1.10909e-09 -4.5291e-11 2.22167 -0.733487 -0.20892 -8.98955e-16 -8.76303e-13 -3.08369e-14 -71.7574 26.3393 -7.80691 18.2173 -10.9223 -34.5097 0.889677 -25.7619 3.88907 5.71509e-10 -1.1042e-09 -1.67403e-10 1.00022e-09 -1.90522e-09 -2.80573e-10 5.71504e-10 -1.1042e-09 -1.674e-10 -7.73091 5.47488 -0.417314 5.71509e-10 -1.1042e-09 -1.67401e-10 -2.90554 0.965183 -0.102902 5.71497e-10 -1.1042e-09 -1.67401e-10 -10.2786 0.731801 -0.0259123 5.71509e-10 -1.1042e-09 -1.67399e-10 -2.22167 -0.733487 0.20892 -2.03217e-16 0.0 -3.88251e-19 -8.77147 -53.9317 -4.66529 -12.0371 85.0432 11.9762 5.40469 29.0464 -12.801 2.03217e-16 0.0 3.88251e-19 26.4673 -72.23 38.4061 1.77449 66.9486 -1.76393 2.02601 15.9629 -7.76301
